<svg width="307" height="146" viewBox="0 0 307 146" fill="none" xmlns="http://www.w3.org/2000/svg">
<path d="M156.72 63V38.72H147.4V34.2H170.86V38.72H161.54V63H156.72ZM174.058 63V34.2H192.658V38.72H178.878V45.82H190.258V50.34H178.878V58.48H192.658V63H174.058ZM208.125 63.6C206.259 63.6 204.505 63.2733 202.865 62.62C201.239 61.9533 199.805 60.98 198.565 59.7C197.339 58.42 196.379 56.8533 195.685 55C194.992 53.1333 194.645 51 194.645 48.6C194.645 45.4533 195.232 42.7667 196.405 40.54C197.579 38.3 199.185 36.5867 201.225 35.4C203.265 34.2 205.565 33.6 208.125 33.6C211.672 33.6 214.479 34.4267 216.545 36.08C218.625 37.72 220.032 40.0267 220.765 43L215.845 43.78C215.299 42.0733 214.405 40.7133 213.165 39.7C211.925 38.6733 210.345 38.16 208.425 38.16C206.492 38.1333 204.885 38.5533 203.605 39.42C202.325 40.2867 201.359 41.5067 200.705 43.08C200.065 44.6533 199.745 46.4933 199.745 48.6C199.745 50.7067 200.065 52.54 200.705 54.1C201.345 55.6467 202.305 56.8533 203.585 57.72C204.879 58.5867 206.492 59.0333 208.425 59.06C209.879 59.0733 211.152 58.8133 212.245 58.28C213.339 57.7333 214.232 56.9133 214.925 55.82C215.619 54.7133 216.085 53.3333 216.325 51.68H211.245V47.9H221.445C221.472 48.1133 221.492 48.4267 221.505 48.84C221.519 49.2533 221.525 49.5 221.525 49.58C221.525 52.3 220.985 54.72 219.905 56.84C218.839 58.9467 217.305 60.6 215.305 61.8C213.305 63 210.912 63.6 208.125 63.6ZM225.542 63V34.2H237.442C237.722 34.2 238.082 34.2133 238.522 34.24C238.962 34.2533 239.369 34.2933 239.742 34.36C241.409 34.6133 242.782 35.1667 243.862 36.02C244.956 36.8733 245.762 37.9533 246.282 39.26C246.816 40.5533 247.082 41.9933 247.082 43.58C247.082 45.9267 246.489 47.9467 245.302 49.64C244.116 51.32 242.296 52.36 239.842 52.76L237.782 52.94H230.362V63H225.542ZM242.082 63L236.402 51.28L241.302 50.2L247.542 63H242.082ZM230.362 48.44H237.242C237.509 48.44 237.809 48.4267 238.142 48.4C238.476 48.3733 238.782 48.32 239.062 48.24C239.862 48.04 240.489 47.6867 240.942 47.18C241.409 46.6733 241.736 46.1 241.922 45.46C242.122 44.82 242.222 44.1933 242.222 43.58C242.222 42.9667 242.122 42.34 241.922 41.7C241.736 41.0467 241.409 40.4667 240.942 39.96C240.489 39.4533 239.862 39.1 239.062 38.9C238.782 38.82 238.476 38.7733 238.142 38.76C237.809 38.7333 237.509 38.72 237.242 38.72H230.362V48.44ZM249.948 63L259.028 34.2H266.088L275.168 63H270.208L261.968 37.16H263.048L254.908 63H249.948ZM255.008 56.76V52.26H270.128V56.76H255.008Z" fill="black"/>
<g filter="url(#filter0_d_139_36)">
<g filter="url(#filter1_d_139_36)">
<circle cx="85.5" cy="66.5" r="66.5" fill="url(#paint0_linear_139_36)"/>
</g>
<path d="M39.4193 19.2111C32.0304 79.0611 60.1082 127.089 80.7971 126.35C101.486 125.611 114.786 116.006 128.825 98.2722C140.056 84.0856 146.804 60.8352 148.775 50.9833" stroke="black" stroke-width="0.5"/>
<path d="M27.8667 33.9889C41.4623 91.3267 83.2834 105.169 103.233 105.661C107.913 105.661 120.967 106.4 129.833 103.444C138.7 100.489 146.335 92.6074 147.567 90.1444" stroke="black" stroke-width="0.5"/>
<path d="M31.7833 29.5555C28.8277 45.3185 24.69 80.8344 31.7833 96.7944C40.65 116.744 48.0389 121.917 50.9944 122.656" stroke="black" stroke-width="0.5"/>
<path d="M20.4778 63.5445C42.9401 103.74 66.7816 117.237 75.8945 118.961C83.5297 121.424 104.12 124.872 125.4 118.961" stroke="black" stroke-width="0.5"/>
</g>
<path d="M108.2 63V34.2H113.02V63H108.2ZM119.011 63V34.2H123.891L137.251 54.5V34.2H142.131V63H137.251L123.891 42.7V63H119.011Z" fill="black" fill-opacity="0.6"/>
<defs>
<filter id="filter0_d_139_36" x="15" y="0" width="141" height="141" filterUnits="userSpaceOnUse" color-interpolation-filters="sRGB">
<feFlood flood-opacity="0" result="BackgroundImageFix"/>
<feColorMatrix in="SourceAlpha" type="matrix" values="0 0 0 0 0 0 0 0 0 0 0 0 0 0 0 0 0 0 127 0" result="hardAlpha"/>
<feOffset dy="4"/>
<feGaussianBlur stdDeviation="2"/>
<feComposite in2="hardAlpha" operator="out"/>
<feColorMatrix type="matrix" values="0 0 0 0 0 0 0 0 0 0 0 0 0 0 0 0 0 0 0.25 0"/>
<feBlend mode="normal" in2="BackgroundImageFix" result="effect1_dropShadow_139_36"/>
<feBlend mode="normal" in="SourceGraphic" in2="effect1_dropShadow_139_36" result="shape"/>
</filter>
<filter id="filter1_d_139_36" x="15" y="0" width="141" height="141" filterUnits="userSpaceOnUse" color-interpolation-filters="sRGB">
<feFlood flood-opacity="0" result="BackgroundImageFix"/>
<feColorMatrix in="SourceAlpha" type="matrix" values="0 0 0 0 0 0 0 0 0 0 0 0 0 0 0 0 0 0 127 0" result="hardAlpha"/>
<feOffset dy="4"/>
<feGaussianBlur stdDeviation="2"/>
<feComposite in2="hardAlpha" operator="out"/>
<feColorMatrix type="matrix" values="0 0 0 0 0 0 0 0 0 0 0 0 0 0 0 0 0 0 0.25 0"/>
<feBlend mode="normal" in2="BackgroundImageFix" result="effect1_dropShadow_139_36"/>
<feBlend mode="normal" in="SourceGraphic" in2="effect1_dropShadow_139_36" result="shape"/>
</filter>
<linearGradient id="paint0_linear_139_36" x1="85.5" y1="0" x2="85.5" y2="133" gradientUnits="userSpaceOnUse">
<stop stop-color="#647EB2"/>
<stop offset="1" stop-color="white"/>
</linearGradient>
</defs>
</svg>
