<svg width="902" height="345" viewBox="0 0 902 345" fill="none" xmlns="http://www.w3.org/2000/svg">
<path opacity="0.2" d="M101.928 325.24C100.776 325.24 99.7947 324.989 98.984 324.488C98.1733 323.981 97.552 323.277 97.12 322.376C96.6933 321.475 96.48 320.429 96.48 319.24C96.48 318.051 96.6933 317.005 97.12 316.104C97.552 315.203 98.1733 314.501 98.984 314C99.7947 313.493 100.776 313.24 101.928 313.24C103.256 313.24 104.355 313.576 105.224 314.248C106.099 314.92 106.707 315.824 107.048 316.96L105.352 317.416C105.128 316.611 104.728 315.979 104.152 315.52C103.581 315.061 102.84 314.832 101.928 314.832C101.112 314.832 100.432 315.016 99.888 315.384C99.344 315.752 98.9333 316.267 98.656 316.928C98.384 317.589 98.248 318.36 98.248 319.24C98.2427 320.12 98.376 320.891 98.648 321.552C98.9253 322.213 99.336 322.728 99.88 323.096C100.429 323.464 101.112 323.648 101.928 323.648C102.84 323.648 103.581 323.419 104.152 322.96C104.728 322.496 105.128 321.864 105.352 321.064L107.048 321.52C106.707 322.656 106.099 323.56 105.224 324.232C104.355 324.904 103.256 325.24 101.928 325.24ZM112.64 325.24C111.781 325.24 111.026 325.053 110.376 324.68C109.73 324.301 109.226 323.776 108.863 323.104C108.506 322.427 108.328 321.643 108.328 320.752C108.328 319.808 108.504 318.989 108.856 318.296C109.213 317.603 109.709 317.067 110.344 316.688C110.978 316.309 111.717 316.12 112.56 316.12C113.44 316.12 114.189 316.325 114.808 316.736C115.426 317.141 115.888 317.72 116.192 318.472C116.501 319.224 116.624 320.117 116.56 321.152H114.888V320.544C114.877 319.541 114.685 318.8 114.312 318.32C113.944 317.84 113.381 317.6 112.624 317.6C111.786 317.6 111.157 317.864 110.736 318.392C110.314 318.92 110.104 319.683 110.104 320.68C110.104 321.629 110.314 322.365 110.736 322.888C111.157 323.405 111.765 323.664 112.56 323.664C113.082 323.664 113.533 323.547 113.912 323.312C114.296 323.072 114.594 322.731 114.808 322.288L116.448 322.808C116.112 323.581 115.602 324.181 114.92 324.608C114.237 325.029 113.477 325.24 112.64 325.24ZM109.56 321.152V319.848H115.727V321.152H109.56ZM118.346 325V316.36H120.018V319.888H124.234V316.36H125.906V325H124.234V321.464H120.018V325H118.346ZM130.383 325V317.864H127.431V316.36H135.007V317.864H132.055V325H130.383ZM141.532 325V322H139.82C139.618 322 139.375 321.992 139.092 321.976C138.815 321.96 138.554 321.931 138.308 321.888C137.663 321.771 137.124 321.491 136.692 321.048C136.26 320.6 136.044 319.984 136.044 319.2C136.044 318.443 136.247 317.835 136.652 317.376C137.063 316.912 137.583 316.613 138.212 316.48C138.484 316.416 138.762 316.381 139.044 316.376C139.332 316.365 139.575 316.36 139.772 316.36H143.204L143.212 325H141.532ZM135.796 325L137.98 321.584H139.748L137.58 325H135.796ZM139.676 320.656H141.532V317.704H139.676C139.559 317.704 139.415 317.709 139.244 317.72C139.074 317.731 138.908 317.76 138.748 317.808C138.583 317.856 138.423 317.941 138.268 318.064C138.119 318.187 137.996 318.344 137.9 318.536C137.804 318.723 137.756 318.939 137.756 319.184C137.756 319.552 137.86 319.856 138.068 320.096C138.276 320.331 138.524 320.485 138.812 320.56C138.967 320.603 139.122 320.629 139.276 320.64C139.431 320.651 139.564 320.656 139.676 320.656ZM149 325.248C148.179 325.243 147.48 325.064 146.904 324.712C146.328 324.36 145.877 323.853 145.552 323.192C145.232 322.525 145.045 321.723 144.992 320.784C144.965 320.331 144.968 319.829 145 319.28C145.032 318.725 145.091 318.189 145.176 317.672C145.267 317.155 145.381 316.723 145.52 316.376C145.675 315.992 145.885 315.64 146.152 315.32C146.419 314.995 146.712 314.723 147.032 314.504C147.373 314.269 147.752 314.088 148.168 313.96C148.584 313.827 149.019 313.723 149.472 313.648C149.931 313.573 150.392 313.509 150.856 313.456C151.325 313.397 151.781 313.325 152.224 313.24L152.384 314.736C152.091 314.805 151.744 314.861 151.344 314.904C150.949 314.947 150.539 314.995 150.112 315.048C149.691 315.101 149.288 315.176 148.904 315.272C148.52 315.368 148.187 315.504 147.904 315.68C147.504 315.925 147.197 316.283 146.984 316.752C146.776 317.221 146.651 317.731 146.608 318.28C146.939 317.779 147.36 317.419 147.872 317.2C148.384 316.976 148.915 316.864 149.464 316.864C150.232 316.864 150.893 317.045 151.448 317.408C152.008 317.771 152.437 318.264 152.736 318.888C153.035 319.512 153.184 320.219 153.184 321.008C153.184 321.861 153.008 322.608 152.656 323.248C152.309 323.883 151.821 324.379 151.192 324.736C150.563 325.088 149.832 325.259 149 325.248ZM149.088 323.672C149.856 323.672 150.435 323.435 150.824 322.96C151.219 322.485 151.416 321.853 151.416 321.064C151.416 320.253 151.213 319.616 150.808 319.152C150.403 318.688 149.829 318.456 149.088 318.456C148.336 318.456 147.76 318.688 147.36 319.152C146.965 319.616 146.768 320.253 146.768 321.064C146.768 321.885 146.968 322.525 147.368 322.984C147.768 323.443 148.341 323.672 149.088 323.672ZM159.004 325.24C158.177 325.24 157.484 325.04 156.924 324.64C156.364 324.235 155.94 323.688 155.652 323C155.364 322.312 155.22 321.536 155.22 320.672C155.22 319.808 155.361 319.032 155.644 318.344C155.932 317.656 156.353 317.115 156.908 316.72C157.468 316.32 158.156 316.12 158.972 316.12C159.783 316.12 160.481 316.32 161.068 316.72C161.66 317.115 162.116 317.656 162.436 318.344C162.756 319.027 162.916 319.803 162.916 320.672C162.916 321.536 162.756 322.315 162.436 323.008C162.121 323.696 161.671 324.24 161.084 324.64C160.503 325.04 159.809 325.24 159.004 325.24ZM154.94 328.84V316.36H156.428V322.576H156.62V328.84H154.94ZM158.772 323.728C159.305 323.728 159.745 323.592 160.092 323.32C160.444 323.048 160.705 322.683 160.876 322.224C161.052 321.76 161.14 321.243 161.14 320.672C161.14 320.107 161.052 319.595 160.876 319.136C160.705 318.677 160.441 318.312 160.084 318.04C159.727 317.768 159.271 317.632 158.716 317.632C158.193 317.632 157.761 317.76 157.42 318.016C157.084 318.272 156.833 318.629 156.668 319.088C156.508 319.547 156.428 320.075 156.428 320.672C156.428 321.269 156.508 321.797 156.668 322.256C156.828 322.715 157.081 323.075 157.428 323.336C157.775 323.597 158.223 323.728 158.772 323.728ZM164.675 325V316.36H166.355V319.36H168.059C168.304 319.36 168.565 319.365 168.843 319.376C169.125 319.387 169.368 319.413 169.571 319.456C170.035 319.552 170.435 319.712 170.771 319.936C171.112 320.16 171.376 320.459 171.562 320.832C171.749 321.2 171.843 321.653 171.843 322.192C171.843 322.944 171.645 323.544 171.251 323.992C170.861 324.435 170.333 324.733 169.667 324.888C169.453 324.936 169.2 324.968 168.907 324.984C168.619 324.995 168.355 325 168.115 325H164.675ZM166.355 323.656H168.211C168.344 323.656 168.496 323.651 168.667 323.64C168.837 323.629 168.995 323.605 169.139 323.568C169.395 323.493 169.624 323.341 169.827 323.112C170.029 322.883 170.131 322.576 170.131 322.192C170.131 321.797 170.029 321.483 169.827 321.248C169.629 321.013 169.379 320.861 169.075 320.792C168.931 320.755 168.784 320.731 168.635 320.72C168.485 320.709 168.344 320.704 168.211 320.704H166.355V323.656Z" fill="black"/>
<path opacity="0.2" d="M323.428 325.24C322.276 325.24 321.295 324.989 320.484 324.488C319.673 323.981 319.052 323.277 318.62 322.376C318.193 321.475 317.98 320.429 317.98 319.24C317.98 318.051 318.193 317.005 318.62 316.104C319.052 315.203 319.673 314.501 320.484 314C321.295 313.493 322.276 313.24 323.428 313.24C324.575 313.24 325.553 313.493 326.364 314C327.18 314.501 327.801 315.203 328.228 316.104C328.655 317.005 328.868 318.051 328.868 319.24C328.868 320.429 328.655 321.475 328.228 322.376C327.801 323.277 327.18 323.981 326.364 324.488C325.553 324.989 324.575 325.24 323.428 325.24ZM323.428 323.648C324.244 323.659 324.921 323.48 325.46 323.112C326.004 322.739 326.412 322.221 326.684 321.56C326.956 320.893 327.092 320.12 327.092 319.24C327.092 318.36 326.956 317.592 326.684 316.936C326.412 316.275 326.004 315.76 325.46 315.392C324.921 315.024 324.244 314.837 323.428 314.832C322.612 314.821 321.932 315 321.388 315.368C320.849 315.736 320.444 316.253 320.172 316.92C319.9 317.587 319.761 318.36 319.756 319.24C319.751 320.12 319.884 320.891 320.156 321.552C320.428 322.208 320.836 322.72 321.38 323.088C321.929 323.456 322.612 323.643 323.428 323.648ZM330.456 325L330.464 316.36H332.16V320.52L335.552 316.36H337.68L334.096 320.68L338.048 325H335.776L332.16 320.84V325H330.456ZM341.086 325V317.864H338.134V316.36H345.71V317.864H342.758V325H341.086ZM352.235 325V322H350.523C350.321 322 350.078 321.992 349.795 321.976C349.518 321.96 349.257 321.931 349.011 321.888C348.366 321.771 347.827 321.491 347.395 321.048C346.963 320.6 346.747 319.984 346.747 319.2C346.747 318.443 346.95 317.835 347.355 317.376C347.766 316.912 348.286 316.613 348.915 316.48C349.187 316.416 349.465 316.381 349.747 316.376C350.035 316.365 350.278 316.36 350.475 316.36H353.907L353.915 325H352.235ZM346.499 325L348.683 321.584H350.451L348.283 325H346.499ZM350.379 320.656H352.235V317.704H350.379C350.262 317.704 350.118 317.709 349.947 317.72C349.777 317.731 349.611 317.76 349.451 317.808C349.286 317.856 349.126 317.941 348.971 318.064C348.822 318.187 348.699 318.344 348.603 318.536C348.507 318.723 348.459 318.939 348.459 319.184C348.459 319.552 348.563 319.856 348.771 320.096C348.979 320.331 349.227 320.485 349.515 320.56C349.67 320.603 349.825 320.629 349.979 320.64C350.134 320.651 350.267 320.656 350.379 320.656ZM359.703 325.248C358.882 325.243 358.183 325.064 357.607 324.712C357.031 324.36 356.581 323.853 356.255 323.192C355.935 322.525 355.749 321.723 355.695 320.784C355.669 320.331 355.671 319.829 355.703 319.28C355.735 318.725 355.794 318.189 355.879 317.672C355.97 317.155 356.085 316.723 356.223 316.376C356.378 315.992 356.589 315.64 356.855 315.32C357.122 314.995 357.415 314.723 357.735 314.504C358.077 314.269 358.455 314.088 358.871 313.96C359.287 313.827 359.722 313.723 360.175 313.648C360.634 313.573 361.095 313.509 361.559 313.456C362.029 313.397 362.485 313.325 362.927 313.24L363.087 314.736C362.794 314.805 362.447 314.861 362.047 314.904C361.653 314.947 361.242 314.995 360.815 315.048C360.394 315.101 359.991 315.176 359.607 315.272C359.223 315.368 358.89 315.504 358.607 315.68C358.207 315.925 357.901 316.283 357.687 316.752C357.479 317.221 357.354 317.731 357.311 318.28C357.642 317.779 358.063 317.419 358.575 317.2C359.087 316.976 359.618 316.864 360.167 316.864C360.935 316.864 361.597 317.045 362.151 317.408C362.711 317.771 363.141 318.264 363.439 318.888C363.738 319.512 363.887 320.219 363.887 321.008C363.887 321.861 363.711 322.608 363.359 323.248C363.013 323.883 362.525 324.379 361.895 324.736C361.266 325.088 360.535 325.259 359.703 325.248ZM359.791 323.672C360.559 323.672 361.138 323.435 361.527 322.96C361.922 322.485 362.119 321.853 362.119 321.064C362.119 320.253 361.917 319.616 361.511 319.152C361.106 318.688 360.533 318.456 359.791 318.456C359.039 318.456 358.463 318.688 358.063 319.152C357.669 319.616 357.471 320.253 357.471 321.064C357.471 321.885 357.671 322.525 358.071 322.984C358.471 323.443 359.045 323.672 359.791 323.672ZM369.707 325.24C368.881 325.24 368.187 325.04 367.627 324.64C367.067 324.235 366.643 323.688 366.355 323C366.067 322.312 365.923 321.536 365.923 320.672C365.923 319.808 366.065 319.032 366.347 318.344C366.635 317.656 367.057 317.115 367.611 316.72C368.171 316.32 368.859 316.12 369.675 316.12C370.486 316.12 371.185 316.32 371.771 316.72C372.363 317.115 372.819 317.656 373.139 318.344C373.459 319.027 373.619 319.803 373.619 320.672C373.619 321.536 373.459 322.315 373.139 323.008C372.825 323.696 372.374 324.24 371.787 324.64C371.206 325.04 370.513 325.24 369.707 325.24ZM365.643 328.84V316.36H367.131V322.576H367.323V328.84H365.643ZM369.475 323.728C370.009 323.728 370.449 323.592 370.795 323.32C371.147 323.048 371.409 322.683 371.579 322.224C371.755 321.76 371.843 321.243 371.843 320.672C371.843 320.107 371.755 319.595 371.579 319.136C371.409 318.677 371.145 318.312 370.787 318.04C370.43 317.768 369.974 317.632 369.419 317.632C368.897 317.632 368.465 317.76 368.123 318.016C367.787 318.272 367.537 318.629 367.371 319.088C367.211 319.547 367.131 320.075 367.131 320.672C367.131 321.269 367.211 321.797 367.371 322.256C367.531 322.715 367.785 323.075 368.131 323.336C368.478 323.597 368.926 323.728 369.475 323.728ZM375.378 325V316.36H377.058V319.36H378.762C379.007 319.36 379.268 319.365 379.546 319.376C379.828 319.387 380.071 319.413 380.274 319.456C380.738 319.552 381.138 319.712 381.474 319.936C381.815 320.16 382.079 320.459 382.266 320.832C382.452 321.2 382.546 321.653 382.546 322.192C382.546 322.944 382.348 323.544 381.954 323.992C381.564 324.435 381.036 324.733 380.37 324.888C380.156 324.936 379.903 324.968 379.61 324.984C379.322 324.995 379.058 325 378.818 325H375.378ZM377.058 323.656H378.914C379.047 323.656 379.199 323.651 379.37 323.64C379.54 323.629 379.698 323.605 379.842 323.568C380.098 323.493 380.327 323.341 380.53 323.112C380.732 322.883 380.834 322.576 380.834 322.192C380.834 321.797 380.732 321.483 380.53 321.248C380.332 321.013 380.082 320.861 379.778 320.792C379.634 320.755 379.487 320.731 379.338 320.72C379.188 320.709 379.047 320.704 378.914 320.704H377.058V323.656Z" fill="black"/>
<path opacity="0.2" d="M538.12 325V313.48H539.792V318.448H545.552V313.48H547.232V325H545.552V320.024H539.792V325H538.12ZM553.231 325.24C552.367 325.24 551.618 325.045 550.983 324.656C550.349 324.267 549.858 323.731 549.511 323.048C549.17 322.36 548.999 321.568 548.999 320.672C548.999 319.771 549.175 318.979 549.527 318.296C549.879 317.608 550.373 317.075 551.007 316.696C551.642 316.312 552.383 316.12 553.231 316.12C554.095 316.12 554.845 316.315 555.479 316.704C556.114 317.093 556.605 317.629 556.951 318.312C557.298 318.995 557.471 319.781 557.471 320.672C557.471 321.573 557.295 322.368 556.943 323.056C556.597 323.739 556.106 324.275 555.471 324.664C554.837 325.048 554.09 325.24 553.231 325.24ZM553.231 323.664C554.058 323.664 554.674 323.387 555.079 322.832C555.49 322.272 555.695 321.552 555.695 320.672C555.695 319.771 555.487 319.051 555.071 318.512C554.661 317.968 554.047 317.696 553.231 317.696C552.671 317.696 552.21 317.824 551.847 318.08C551.485 318.331 551.215 318.68 551.039 319.128C550.863 319.571 550.775 320.085 550.775 320.672C550.775 321.579 550.983 322.304 551.399 322.848C551.815 323.392 552.426 323.664 553.231 323.664ZM564.485 325V322H562.773C562.571 322 562.328 321.992 562.045 321.976C561.768 321.96 561.507 321.931 561.261 321.888C560.616 321.771 560.077 321.491 559.645 321.048C559.213 320.6 558.997 319.984 558.997 319.2C558.997 318.443 559.2 317.835 559.605 317.376C560.016 316.912 560.536 316.613 561.165 316.48C561.437 316.416 561.715 316.381 561.997 316.376C562.285 316.365 562.528 316.36 562.725 316.36H566.157L566.165 325H564.485ZM558.749 325L560.933 321.584H562.701L560.533 325H558.749ZM562.629 320.656H564.485V317.704H562.629C562.512 317.704 562.368 317.709 562.197 317.72C562.027 317.731 561.861 317.76 561.701 317.808C561.536 317.856 561.376 317.941 561.221 318.064C561.072 318.187 560.949 318.344 560.853 318.536C560.757 318.723 560.709 318.939 560.709 319.184C560.709 319.552 560.813 319.856 561.021 320.096C561.229 320.331 561.477 320.485 561.765 320.56C561.92 320.603 562.075 320.629 562.229 320.64C562.384 320.651 562.517 320.656 562.629 320.656ZM571.953 325.248C571.132 325.243 570.433 325.064 569.857 324.712C569.281 324.36 568.831 323.853 568.505 323.192C568.185 322.525 567.999 321.723 567.945 320.784C567.919 320.331 567.921 319.829 567.953 319.28C567.985 318.725 568.044 318.189 568.129 317.672C568.22 317.155 568.335 316.723 568.473 316.376C568.628 315.992 568.839 315.64 569.105 315.32C569.372 314.995 569.665 314.723 569.985 314.504C570.327 314.269 570.705 314.088 571.121 313.96C571.537 313.827 571.972 313.723 572.425 313.648C572.884 313.573 573.345 313.509 573.809 313.456C574.279 313.397 574.735 313.325 575.177 313.24L575.337 314.736C575.044 314.805 574.697 314.861 574.297 314.904C573.903 314.947 573.492 314.995 573.065 315.048C572.644 315.101 572.241 315.176 571.857 315.272C571.473 315.368 571.14 315.504 570.857 315.68C570.457 315.925 570.151 316.283 569.937 316.752C569.729 317.221 569.604 317.731 569.561 318.28C569.892 317.779 570.313 317.419 570.825 317.2C571.337 316.976 571.868 316.864 572.417 316.864C573.185 316.864 573.847 317.045 574.401 317.408C574.961 317.771 575.391 318.264 575.689 318.888C575.988 319.512 576.137 320.219 576.137 321.008C576.137 321.861 575.961 322.608 575.609 323.248C575.263 323.883 574.775 324.379 574.145 324.736C573.516 325.088 572.785 325.259 571.953 325.248ZM572.041 323.672C572.809 323.672 573.388 323.435 573.777 322.96C574.172 322.485 574.369 321.853 574.369 321.064C574.369 320.253 574.167 319.616 573.761 319.152C573.356 318.688 572.783 318.456 572.041 318.456C571.289 318.456 570.713 318.688 570.313 319.152C569.919 319.616 569.721 320.253 569.721 321.064C569.721 321.885 569.921 322.525 570.321 322.984C570.721 323.443 571.295 323.672 572.041 323.672ZM581.957 325.24C581.131 325.24 580.437 325.04 579.877 324.64C579.317 324.235 578.893 323.688 578.605 323C578.317 322.312 578.173 321.536 578.173 320.672C578.173 319.808 578.315 319.032 578.597 318.344C578.885 317.656 579.307 317.115 579.861 316.72C580.421 316.32 581.109 316.12 581.925 316.12C582.736 316.12 583.435 316.32 584.021 316.72C584.613 317.115 585.069 317.656 585.389 318.344C585.709 319.027 585.869 319.803 585.869 320.672C585.869 321.536 585.709 322.315 585.389 323.008C585.075 323.696 584.624 324.24 584.037 324.64C583.456 325.04 582.763 325.24 581.957 325.24ZM577.893 328.84V316.36H579.381V322.576H579.573V328.84H577.893ZM581.725 323.728C582.259 323.728 582.699 323.592 583.045 323.32C583.397 323.048 583.659 322.683 583.829 322.224C584.005 321.76 584.093 321.243 584.093 320.672C584.093 320.107 584.005 319.595 583.829 319.136C583.659 318.677 583.395 318.312 583.037 318.04C582.68 317.768 582.224 317.632 581.669 317.632C581.147 317.632 580.715 317.76 580.373 318.016C580.037 318.272 579.787 318.629 579.621 319.088C579.461 319.547 579.381 320.075 579.381 320.672C579.381 321.269 579.461 321.797 579.621 322.256C579.781 322.715 580.035 323.075 580.381 323.336C580.728 323.597 581.176 323.728 581.725 323.728ZM587.628 325V316.36H589.308V319.36H591.012C591.257 319.36 591.518 319.365 591.796 319.376C592.078 319.387 592.321 319.413 592.524 319.456C592.988 319.552 593.388 319.712 593.724 319.936C594.065 320.16 594.329 320.459 594.516 320.832C594.702 321.2 594.796 321.653 594.796 322.192C594.796 322.944 594.598 323.544 594.204 323.992C593.814 324.435 593.286 324.733 592.62 324.888C592.406 324.936 592.153 324.968 591.86 324.984C591.572 324.995 591.308 325 591.068 325H587.628ZM589.308 323.656H591.164C591.297 323.656 591.449 323.651 591.62 323.64C591.79 323.629 591.948 323.605 592.092 323.568C592.348 323.493 592.577 323.341 592.78 323.112C592.982 322.883 593.084 322.576 593.084 322.192C593.084 321.797 592.982 321.483 592.78 321.248C592.582 321.013 592.332 320.861 592.028 320.792C591.884 320.755 591.737 320.731 591.588 320.72C591.438 320.709 591.297 320.704 591.164 320.704H589.308V323.656Z" fill="black"/>
<path opacity="0.2" d="M749.036 326.92V323.424C749.431 323.424 749.756 323.325 750.012 323.128C750.268 322.925 750.471 322.651 750.62 322.304C750.775 321.952 750.892 321.552 750.972 321.104C751.057 320.656 751.121 320.184 751.164 319.688C751.228 319.016 751.281 318.36 751.324 317.72C751.372 317.075 751.415 316.408 751.452 315.72C751.495 315.032 751.54 314.283 751.588 313.472L758.964 313.48V323.424H759.82V326.92H758.14V325H750.708V326.92H749.036ZM751.78 323.424H757.292V315.056L753.132 315.048C753.095 315.635 753.063 316.192 753.036 316.72C753.009 317.248 752.975 317.781 752.932 318.32C752.895 318.853 752.847 319.427 752.788 320.04C752.729 320.627 752.668 321.125 752.604 321.536C752.54 321.941 752.444 322.293 752.316 322.592C752.193 322.891 752.015 323.168 751.78 323.424ZM765.405 325.24C764.546 325.24 763.792 325.053 763.141 324.68C762.496 324.301 761.992 323.776 761.629 323.104C761.272 322.427 761.093 321.643 761.093 320.752C761.093 319.808 761.269 318.989 761.621 318.296C761.978 317.603 762.474 317.067 763.109 316.688C763.744 316.309 764.482 316.12 765.325 316.12C766.205 316.12 766.954 316.325 767.573 316.736C768.192 317.141 768.653 317.72 768.957 318.472C769.266 319.224 769.389 320.117 769.325 321.152H767.653V320.544C767.642 319.541 767.45 318.8 767.077 318.32C766.709 317.84 766.146 317.6 765.389 317.6C764.552 317.6 763.922 317.864 763.501 318.392C763.08 318.92 762.869 319.683 762.869 320.68C762.869 321.629 763.08 322.365 763.501 322.888C763.922 323.405 764.53 323.664 765.325 323.664C765.848 323.664 766.298 323.547 766.677 323.312C767.061 323.072 767.36 322.731 767.573 322.288L769.213 322.808C768.877 323.581 768.368 324.181 767.685 324.608C767.002 325.029 766.242 325.24 765.405 325.24ZM762.325 321.152V319.848H768.493V321.152H762.325ZM771.112 325L771.12 316.36H772.816V320.52L776.208 316.36H778.336L774.752 320.68L778.704 325H776.432L772.816 320.84V325H771.112ZM781.951 325.24C781.311 325.24 780.775 325.123 780.343 324.888C779.911 324.648 779.583 324.333 779.359 323.944C779.14 323.549 779.031 323.117 779.031 322.648C779.031 322.211 779.108 321.827 779.263 321.496C779.417 321.165 779.647 320.885 779.951 320.656C780.255 320.421 780.628 320.232 781.071 320.088C781.455 319.976 781.889 319.877 782.375 319.792C782.86 319.707 783.369 319.627 783.903 319.552C784.441 319.477 784.975 319.403 785.503 319.328L784.895 319.664C784.905 318.987 784.761 318.485 784.463 318.16C784.169 317.829 783.663 317.664 782.943 317.664C782.489 317.664 782.073 317.771 781.695 317.984C781.316 318.192 781.052 318.539 780.903 319.024L779.343 318.544C779.556 317.803 779.961 317.213 780.559 316.776C781.161 316.339 781.961 316.12 782.959 316.12C783.732 316.12 784.404 316.253 784.975 316.52C785.551 316.781 785.972 317.197 786.239 317.768C786.377 318.051 786.463 318.349 786.495 318.664C786.527 318.979 786.543 319.317 786.543 319.68V325H785.063V323.024L785.351 323.28C784.993 323.941 784.537 324.435 783.983 324.76C783.433 325.08 782.756 325.24 781.951 325.24ZM782.247 323.872C782.721 323.872 783.129 323.789 783.471 323.624C783.812 323.453 784.087 323.237 784.295 322.976C784.503 322.715 784.639 322.443 784.703 322.16C784.793 321.904 784.844 321.616 784.855 321.296C784.871 320.976 784.879 320.72 784.879 320.528L785.423 320.728C784.895 320.808 784.415 320.88 783.983 320.944C783.551 321.008 783.159 321.072 782.807 321.136C782.46 321.195 782.151 321.267 781.879 321.352C781.649 321.432 781.444 321.528 781.263 321.64C781.087 321.752 780.945 321.888 780.839 322.048C780.737 322.208 780.687 322.403 780.687 322.632C780.687 322.856 780.743 323.064 780.855 323.256C780.967 323.443 781.137 323.592 781.367 323.704C781.596 323.816 781.889 323.872 782.247 323.872ZM792.172 325.248C791.351 325.243 790.652 325.064 790.076 324.712C789.5 324.36 789.049 323.853 788.724 323.192C788.404 322.525 788.217 321.723 788.164 320.784C788.137 320.331 788.14 319.829 788.172 319.28C788.204 318.725 788.263 318.189 788.348 317.672C788.439 317.155 788.553 316.723 788.692 316.376C788.847 315.992 789.057 315.64 789.324 315.32C789.591 314.995 789.884 314.723 790.204 314.504C790.545 314.269 790.924 314.088 791.34 313.96C791.756 313.827 792.191 313.723 792.644 313.648C793.103 313.573 793.564 313.509 794.028 313.456C794.497 313.397 794.953 313.325 795.396 313.24L795.556 314.736C795.263 314.805 794.916 314.861 794.516 314.904C794.121 314.947 793.711 314.995 793.284 315.048C792.863 315.101 792.46 315.176 792.076 315.272C791.692 315.368 791.359 315.504 791.076 315.68C790.676 315.925 790.369 316.283 790.156 316.752C789.948 317.221 789.823 317.731 789.78 318.28C790.111 317.779 790.532 317.419 791.044 317.2C791.556 316.976 792.087 316.864 792.636 316.864C793.404 316.864 794.065 317.045 794.62 317.408C795.18 317.771 795.609 318.264 795.908 318.888C796.207 319.512 796.356 320.219 796.356 321.008C796.356 321.861 796.18 322.608 795.828 323.248C795.481 323.883 794.993 324.379 794.364 324.736C793.735 325.088 793.004 325.259 792.172 325.248ZM792.26 323.672C793.028 323.672 793.607 323.435 793.996 322.96C794.391 322.485 794.588 321.853 794.588 321.064C794.588 320.253 794.385 319.616 793.98 319.152C793.575 318.688 793.001 318.456 792.26 318.456C791.508 318.456 790.932 318.688 790.532 319.152C790.137 319.616 789.94 320.253 789.94 321.064C789.94 321.885 790.14 322.525 790.54 322.984C790.94 323.443 791.513 323.672 792.26 323.672ZM802.176 325.24C801.349 325.24 800.656 325.04 800.096 324.64C799.536 324.235 799.112 323.688 798.824 323C798.536 322.312 798.392 321.536 798.392 320.672C798.392 319.808 798.533 319.032 798.816 318.344C799.104 317.656 799.525 317.115 800.08 316.72C800.64 316.32 801.328 316.12 802.144 316.12C802.955 316.12 803.653 316.32 804.24 316.72C804.832 317.115 805.288 317.656 805.608 318.344C805.928 319.027 806.088 319.803 806.088 320.672C806.088 321.536 805.928 322.315 805.608 323.008C805.293 323.696 804.843 324.24 804.256 324.64C803.675 325.04 802.981 325.24 802.176 325.24ZM798.112 328.84V316.36H799.6V322.576H799.792V328.84H798.112ZM801.944 323.728C802.477 323.728 802.917 323.592 803.264 323.32C803.616 323.048 803.877 322.683 804.048 322.224C804.224 321.76 804.312 321.243 804.312 320.672C804.312 320.107 804.224 319.595 804.048 319.136C803.877 318.677 803.613 318.312 803.256 318.04C802.899 317.768 802.443 317.632 801.888 317.632C801.365 317.632 800.933 317.76 800.592 318.016C800.256 318.272 800.005 318.629 799.84 319.088C799.68 319.547 799.6 320.075 799.6 320.672C799.6 321.269 799.68 321.797 799.84 322.256C800 322.715 800.253 323.075 800.6 323.336C800.947 323.597 801.395 323.728 801.944 323.728ZM807.846 325V316.36H809.526V319.36H811.23C811.476 319.36 811.737 319.365 812.014 319.376C812.297 319.387 812.54 319.413 812.742 319.456C813.206 319.552 813.606 319.712 813.942 319.936C814.284 320.16 814.548 320.459 814.734 320.832C814.921 321.2 815.014 321.653 815.014 322.192C815.014 322.944 814.817 323.544 814.422 323.992C814.033 324.435 813.505 324.733 812.838 324.888C812.625 324.936 812.372 324.968 812.078 324.984C811.79 324.995 811.526 325 811.286 325H807.846ZM809.526 323.656H811.382C811.516 323.656 811.668 323.651 811.838 323.64C812.009 323.629 812.166 323.605 812.31 323.568C812.566 323.493 812.796 323.341 812.998 323.112C813.201 322.883 813.302 322.576 813.302 322.192C813.302 321.797 813.201 321.483 812.998 321.248C812.801 321.013 812.55 320.861 812.246 320.792C812.102 320.755 811.956 320.731 811.806 320.72C811.657 320.709 811.516 320.704 811.382 320.704H809.526V323.656Z" fill="black"/>
<g opacity="0.05">
<path d="M50 42.0001L852 42.0001" stroke="black" stroke-width="2"/>
<path d="M50 97.0001L852 97.0001" stroke="black" stroke-width="2"/>
<path d="M50 152L852 152" stroke="black" stroke-width="2"/>
<path d="M50 207L852 207" stroke="black" stroke-width="2"/>
<path d="M50 262L852 262" stroke="black" stroke-width="2"/>
</g>
<g filter="url(#filter0_d_187_143)">
<path d="M50 251.231C80.8462 251.231 80.8462 207.571 111.692 207.571C142.538 207.571 142.538 199.866 173.385 199.866C204.231 199.866 204.231 238.39 235.077 238.39C265.923 238.39 265.923 246.095 296.769 246.095C327.615 246.095 327.615 215.275 358.462 215.275C389.308 215.275 389.308 282.051 420.154 282.051C451 282.051 451 256.368 481.846 256.368C512.692 256.368 512.692 187.024 543.538 187.024C574.385 187.024 586.5 162.959 606 125.319C625.5 87.6785 636.077 65.1145 666.923 65.1145C697.769 65.1145 697.769 108.775 728.615 108.775C759.462 108.775 759.462 42 790.308 42C821.154 42 821.154 52.2731 852 52.2731" stroke="#496BDC" stroke-width="4"/>
</g>
<defs>
<filter id="filter0_d_187_143" x="0" y="0" width="902" height="344.051" filterUnits="userSpaceOnUse" color-interpolation-filters="sRGB">
<feFlood flood-opacity="0" result="BackgroundImageFix"/>
<feColorMatrix in="SourceAlpha" type="matrix" values="0 0 0 0 0 0 0 0 0 0 0 0 0 0 0 0 0 0 127 0" result="hardAlpha"/>
<feOffset dy="10"/>
<feGaussianBlur stdDeviation="25"/>
<feComposite in2="hardAlpha" operator="out"/>
<feColorMatrix type="matrix" values="0 0 0 0 0.286275 0 0 0 0 0.419608 0 0 0 0 0.862745 0 0 0 0.8 0"/>
<feBlend mode="normal" in2="BackgroundImageFix" result="effect1_dropShadow_187_143"/>
<feBlend mode="normal" in="SourceGraphic" in2="effect1_dropShadow_187_143" result="shape"/>
</filter>
</defs>
</svg>
